<svg width="23" height="24" viewBox="0 0 23 24" fill="none" xmlns="http://www.w3.org/2000/svg">
<circle cx="11.4999" cy="5.60345" r="5.10345" stroke="white"/>
<path d="M22.4212 22.0798L22.4211 22.0797L19.8194 15.3475L19.8194 15.3474C19.7368 15.1336 19.5968 14.9704 19.4409 14.8772C19.4409 14.8772 19.4409 14.8772 19.4409 14.8772L15.5663 12.5603C14.3721 13.5462 12.9693 14.0771 11.5 14.0771C10.0306 14.0771 8.62783 13.5461 7.43355 12.5603L3.5591 14.8772L3.55903 14.8772C3.40326 14.9704 3.26336 15.1334 3.18061 15.3475L0.578898 22.0797L0.112513 21.8995L0.578896 22.0797C0.452433 22.4069 0.480259 22.7812 0.646007 23.074L0.64604 23.0741C0.809625 23.3632 1.06169 23.5 1.3014 23.5H21.6985C21.9382 23.5 22.1904 23.3631 22.354 23.074L22.4212 22.0798ZM22.4212 22.0798C22.5476 22.4067 22.5197 22.7811 22.354 23.074L22.4212 22.0798Z" stroke="white"/>
</svg>
