<svg width="29" height="29" viewBox="0 0 29 29" fill="none" xmlns="http://www.w3.org/2000/svg">
<path d="M21.7485 0.00603394L17.9879 0C13.7629 0 11.0326 2.80125 11.0326 7.13694V10.4275H7.25148C6.92474 10.4275 6.66016 10.6924 6.66016 11.0192V15.7869C6.66016 16.1136 6.92504 16.3782 7.25148 16.3782H11.0326V28.4087C11.0326 28.7354 11.2972 29 11.6239 29H16.5572C16.884 29 17.1485 28.7351 17.1485 28.4087V16.3782H21.5696C21.8963 16.3782 22.1609 16.1136 22.1609 15.7869L22.1627 11.0192C22.1627 10.8623 22.1002 10.712 21.9895 10.601C21.8788 10.49 21.7279 10.4275 21.5711 10.4275H17.1485V7.63806C17.1485 6.29732 17.468 5.61669 19.2145 5.61669L21.7479 5.61578C22.0743 5.61578 22.3389 5.35089 22.3389 5.02446V0.59736C22.3389 0.271225 22.0746 0.00663733 21.7485 0.00603394Z" fill="#1F222A"/>
</svg>
