<svg width="23" height="23" viewBox="0 0 23 23" fill="none" xmlns="http://www.w3.org/2000/svg">
<path d="M23 13.9857V22.489H18.0704V14.5552C18.0704 12.5622 17.3573 11.202 15.573 11.202C14.2108 11.202 13.4002 12.1187 13.0436 13.0054C12.9136 13.3224 12.8801 13.7636 12.8801 14.2073V22.489H7.94878C7.94878 22.489 8.01519 9.05179 7.94878 7.6596H12.8796V9.7616C12.8696 9.77732 12.8566 9.79427 12.8472 9.80951H12.8796V9.7616C13.5347 8.7526 14.7047 7.31121 17.3234 7.31121C20.5678 7.31116 23 9.4307 23 13.9857ZM2.79042 0.511108C1.10343 0.511108 0 1.61764 0 3.07277C0 4.49619 1.07151 5.63631 2.72497 5.63631H2.75791C4.47758 5.63631 5.54705 4.49641 5.54705 3.07277C5.51465 1.61764 4.47758 0.511108 2.79042 0.511108ZM0.292876 22.489H5.22231V7.6596H0.292876V22.489Z" fill="#1F222A"/>
</svg>
