<svg width="24" height="20" viewBox="0 0 24 20" fill="none" xmlns="http://www.w3.org/2000/svg">
<rect x="0.5" y="5.5" width="23" height="14" rx="1" stroke="white"/>
<path d="M7.5 1.5C7.5 0.947715 7.94772 0.5 8.5 0.5H16.5C17.0523 0.5 17.5 0.947715 17.5 1.5V4.5C17.5 5.05228 17.0523 5.5 16.5 5.5H7.5V1.5Z" stroke="white"/>
<path d="M9.5 10.5C9.5 9.94772 9.94772 9.5 10.5 9.5H14.5C15.0523 9.5 15.5 9.94772 15.5 10.5V13.5C15.5 14.0523 15.0523 14.5 14.5 14.5H10.5C9.94772 14.5 9.5 14.0523 9.5 13.5V10.5Z" stroke="white"/>
<line x1="1" y1="11.5" x2="9" y2="11.5" stroke="white"/>
<line x1="15" y1="11.5" x2="23" y2="11.5" stroke="white"/>
</svg>
